<svg width="27" height="26" viewBox="0 0 27 26" fill="none" xmlns="http://www.w3.org/2000/svg">
<path fill-rule="evenodd" clip-rule="evenodd" d="M19.8547 12.3765C19.8547 15.8179 17.0649 18.6078 13.6234 18.6078C12.8024 18.6078 12.0184 18.449 11.3006 18.1604L9.13519 21.5734C10.4903 22.2359 12.0134 22.6078 13.6234 22.6078C19.274 22.6078 23.8547 18.027 23.8547 12.3765C23.8547 6.72585 19.274 2.14514 13.6234 2.14514C7.9728 2.14514 3.39209 6.72585 3.39209 12.3765C3.39209 12.8962 3.43084 13.4069 3.50562 13.9058H7.58114C7.45768 13.4165 7.39209 12.9041 7.39209 12.3765C7.39209 8.93499 10.1819 6.14514 13.6234 6.14514C17.0649 6.14514 19.8547 8.93499 19.8547 12.3765Z" fill="white"/>
<path d="M5.36884 20.6699L10.4529 12.6568L0.284745 12.6568L5.36884 20.6699Z" fill="white"/>
</svg>
