<svg width="47" height="47" viewBox="0 0 47 47" fill="none" xmlns="http://www.w3.org/2000/svg">
<path fill-rule="evenodd" clip-rule="evenodd" d="M33.1216 34.2986C30.5776 36.719 27.1477 38.2008 23.3868 38.2008C15.5989 38.2008 9.26582 31.8467 9.28792 23.962C9.31001 16.0774 15.6787 9.72328 23.4666 9.72328C27.4489 9.72328 31.0508 11.3847 33.6171 14.0627H38.6915C35.474 9.04413 29.8663 5.7233 23.4778 5.7233C13.46 5.7233 5.31614 13.8891 5.28792 23.962C5.25969 34.035 13.3578 42.2008 23.3756 42.2008C29.5766 42.2008 35.0597 39.0719 38.3443 34.2986H33.1216Z" fill="white"/>
<path d="M46.4336 24.4867L36.3086 18.0627V30.9107L46.4336 24.4867Z" fill="white"/>
<path d="M21.7639 24.4867H43.3685" stroke="white" stroke-width="4"/>
</svg>
