<svg width="171" height="172" viewBox="0 0 171 172" fill="none" xmlns="http://www.w3.org/2000/svg">
<g filter="url(#filter0_d_4_3473)">
<path d="M85.865 6.90771L99.4085 15.9551L115.383 12.7793L124.434 26.3209L140.408 29.5L143.587 45.4742L157.128 54.5244L153.953 70.4993L163 84.0427L153.953 97.5862L157.128 113.561L143.587 122.611L140.408 138.585L124.434 141.765L115.383 155.306L99.4085 152.13L85.865 161.178L72.3215 152.13L56.3467 155.306L47.2965 141.765L31.3223 138.585L28.1431 122.611L14.6015 113.561L17.7774 97.5862L8.72998 84.0427L17.7774 70.4993L14.6015 54.5244L28.1431 45.4742L31.3223 29.5L47.2965 26.3209L56.3467 12.7793L72.3215 15.9551L85.865 6.90771Z" fill="url(#paint0_linear_4_3473)"/>
<circle cx="85.865" cy="84.0427" r="60.5276" fill="url(#paint1_linear_4_3473)" stroke="#FFFBD2" stroke-width="4"/>
<path d="M50.7414 80.0843C50.8269 80.5729 50.8244 81.0687 50.7338 81.5719C50.6562 82.0565 50.4878 82.5327 50.2286 83.0004C49.9666 83.4523 49.6031 83.8814 49.1382 84.2877C48.6733 84.6939 48.1 85.0379 47.4184 85.3197L47.7784 87.3764L52.5302 86.5446C52.7508 86.506 52.9153 86.5178 53.0237 86.5801C53.132 86.6423 53.2069 86.7916 53.2483 87.028L53.7324 89.794C53.7738 90.0304 53.7541 90.1963 53.6734 90.2916C53.5926 90.387 53.4419 90.454 53.2212 90.4926L39.3679 92.9176C39.1473 92.9562 38.9828 92.9444 38.8744 92.8822C38.766 92.8199 38.6912 92.6706 38.6498 92.4342L38.1656 89.6683C38.1242 89.4319 38.1439 89.266 38.2247 89.1706C38.3055 89.0753 38.4562 89.0083 38.6768 88.9697L43.2394 88.171L42.8835 86.1379C42.0995 86.1127 41.4198 85.988 40.8445 85.7639C40.2692 85.5397 39.7803 85.2517 39.3776 84.8999C38.9906 84.5453 38.677 84.1454 38.4366 83.7001C38.212 83.2522 38.0569 82.7839 37.9714 82.2953C37.8666 81.6964 37.8748 81.094 37.9961 80.488C38.1332 79.8792 38.4074 79.3114 38.8187 78.7846C39.2431 78.2393 39.8337 77.7623 40.5906 77.3537C41.3447 76.9293 42.3049 76.615 43.4711 76.4109C44.5901 76.215 45.5749 76.1807 46.4256 76.3079C47.2921 76.4324 48.0253 76.6776 48.6254 77.0436C49.2228 77.3939 49.6986 77.8385 50.0528 78.3775C50.4043 78.9007 50.6338 79.4696 50.7414 80.0843ZM55.4376 90.3483C55.2169 90.3869 55.0524 90.3751 54.9441 90.3128C54.8357 90.2506 54.7608 90.1013 54.7195 89.8649L51.0778 69.0612C51.0364 68.8248 51.0561 68.6589 51.1369 68.5636C51.2176 68.4682 51.3683 68.4012 51.589 68.3626L54.8986 67.7832C55.1193 67.7446 55.2838 67.7564 55.3921 67.8187C55.5005 67.8809 55.5754 68.0302 55.6168 68.2666L59.2584 89.0703C59.2998 89.3067 59.2801 89.4726 59.1994 89.568C59.1186 89.6633 58.9679 89.7303 58.7472 89.7689L55.4376 90.3483ZM35.6134 73.2789C35.572 73.0425 35.5917 72.8766 35.6725 72.7812C35.7532 72.6859 35.9039 72.6189 36.1246 72.5802L40.3799 71.8354L40.1274 70.3933C40.0861 70.1569 40.1058 69.991 40.1865 69.8956C40.2673 69.8003 40.418 69.7333 40.6386 69.6947L43.9483 69.1153C44.169 69.0767 44.3335 69.0885 44.4418 69.1508C44.5502 69.213 44.625 69.3623 44.6664 69.5987L44.9189 71.0408L49.0323 70.3208C49.253 70.2821 49.4175 70.2939 49.5258 70.3562C49.6342 70.4184 49.709 70.5678 49.7504 70.8042L50.2181 73.4756C50.2594 73.712 50.2397 73.8778 50.159 73.9732C50.0782 74.0685 49.9275 74.1355 49.7069 74.1742L36.7991 76.4337C36.5785 76.4723 36.414 76.4605 36.3056 76.3982C36.1973 76.336 36.1224 76.1866 36.081 75.9502L35.6134 73.2789ZM46.2692 80.8428C46.1892 80.3857 45.9538 80.0615 45.5629 79.87C45.172 79.6785 44.6772 79.6352 44.0783 79.7401C43.5109 79.8394 43.0759 80.0455 42.7733 80.3583C42.468 80.6554 42.3553 81.0325 42.4353 81.4895C42.5153 81.9466 42.7508 82.2709 43.1416 82.4623C43.5297 82.638 44.0075 82.6762 44.5749 82.5769C45.1738 82.4721 45.6259 82.2711 45.9312 81.974C46.2338 81.6611 46.3465 81.2841 46.2692 80.8428ZM67.4552 75.2094C66.1628 75.4356 65.0547 75.5077 64.1307 75.4258C63.2198 75.3254 62.4591 75.1093 61.8488 74.7776C61.2384 74.4459 60.764 74.0091 60.4255 73.4674C60.1028 72.9229 59.8808 72.3039 59.7594 71.6104C59.638 70.917 59.6444 70.258 59.7788 69.6335C59.9131 69.009 60.2109 68.437 60.6723 67.9177C61.1494 67.3956 61.8007 66.9405 62.6261 66.5524C63.4673 66.1615 64.5262 65.8543 65.8028 65.6308C67.5522 65.3246 68.9713 65.3117 70.0599 65.5922C71.1616 65.8541 71.9914 66.3261 72.5494 67.0081L75.008 66.5778L74.7183 64.9229C74.6769 64.6865 74.6966 64.5206 74.7774 64.4253C74.8581 64.3299 75.0089 64.2629 75.2295 64.2243L78.5392 63.645C78.7598 63.6063 78.9243 63.6181 79.0327 63.6804C79.141 63.7426 79.2159 63.892 79.2573 64.1284L81.9472 79.4947C81.9885 79.7311 81.9689 79.897 81.8881 79.9924C81.8073 80.0877 81.6566 80.1547 81.436 80.1933L78.1263 80.7727C77.9056 80.8113 77.7411 80.7995 77.6328 80.7373C77.5244 80.675 77.4496 80.5257 77.4082 80.2893L75.6536 70.2657L73.5968 70.6257C73.5433 71.1549 73.3961 71.6598 73.1554 72.1405C72.9119 72.6055 72.5406 73.0359 72.0414 73.4319C71.558 73.8252 70.9374 74.1775 70.1797 74.4888C69.4193 74.7843 68.5111 75.0245 67.4552 75.2094ZM60.4612 77.8468C60.4198 77.6104 60.4395 77.4445 60.5203 77.3492C60.601 77.2538 60.7518 77.1868 60.9724 77.1482L74.8258 74.7232C75.0464 74.6846 75.2109 74.6964 75.3193 74.7586C75.4276 74.8209 75.5025 74.9702 75.5439 75.2066L76.028 77.9725C76.0694 78.2089 76.0497 78.3748 75.969 78.4702C75.8882 78.5655 75.7375 78.6325 75.5168 78.6712L70.5523 79.5402L70.842 81.195C70.8834 81.4314 70.8637 81.5973 70.7829 81.6927C70.7022 81.788 70.5515 81.855 70.3308 81.8936L67.5412 82.382L67.6447 82.973C67.744 83.5403 67.9353 83.9373 68.2186 84.1638C68.5019 84.3904 68.9574 84.4406 69.5851 84.3145C70.4334 84.1497 71.3813 83.9513 72.429 83.7192C73.4794 83.5028 74.56 83.2731 75.6707 83.0299C76.7787 82.771 77.8695 82.5069 78.9431 82.2378C80.0141 81.9529 81.0062 81.6817 81.9195 81.4244C82.1346 81.3543 82.2898 81.3596 82.3852 81.4403C82.4806 81.5211 82.5647 81.6769 82.6376 81.9078L83.354 84.6087C83.4269 84.8396 83.4137 84.9962 83.3145 85.0786C83.2152 85.1609 83.058 85.2372 82.8428 85.3073C81.7747 85.608 80.6013 85.9109 79.3228 86.2159C78.0627 86.5339 76.7842 86.839 75.4871 87.131C74.19 87.423 72.9217 87.6938 71.6822 87.9432C70.4426 88.1927 69.3185 88.4057 68.3099 88.5823C66.7969 88.8471 65.6377 88.6277 64.8323 87.9241C64.0454 87.2334 63.4961 85.9976 63.1843 84.2167L62.8533 82.3254C62.8119 82.089 62.8316 81.9232 62.9123 81.8278C62.9931 81.7324 63.1438 81.6655 63.3645 81.6268L66.154 81.1385L66.0133 80.3347L61.6635 81.0962C61.4428 81.1348 61.2783 81.123 61.17 81.0607C61.0616 80.9985 60.9868 80.8492 60.9454 80.6128L60.4612 77.8468ZM66.8291 71.4937C67.0813 71.4495 67.3478 71.3947 67.6288 71.3293C67.9097 71.2639 68.1628 71.179 68.3882 71.0745C68.6108 70.9544 68.7885 70.8096 68.9213 70.6401C69.0513 70.4549 69.0929 70.2284 69.046 69.9604C69.0018 69.7083 68.8871 69.5172 68.702 69.3872C68.5168 69.2572 68.3004 69.1813 68.053 69.1597C67.8028 69.1222 67.5345 69.1205 67.248 69.1544C66.9588 69.1725 66.6881 69.2037 66.436 69.2478C66.1681 69.2947 65.895 69.3587 65.6168 69.4399C65.3359 69.5053 65.0841 69.5981 64.8615 69.7183C64.6362 69.8228 64.4585 69.9676 64.3285 70.1528C64.2142 70.3352 64.1791 70.5525 64.2233 70.8047C64.2702 71.0726 64.3784 71.2729 64.5478 71.4057C64.733 71.5357 64.9507 71.6194 65.2009 71.6569C65.4483 71.6785 65.7153 71.6724 66.0017 71.6385C66.2854 71.5888 66.5612 71.5406 66.8291 71.4937ZM82.6142 63.5407C82.5729 63.3043 82.5926 63.1385 82.6733 63.0431C82.7541 62.9477 82.9048 62.8808 83.1254 62.8421L91.2814 61.4144C91.8803 61.3096 92.4049 61.2909 92.8553 61.3582C93.3057 61.4256 93.6938 61.6013 94.0196 61.8853C94.3585 62.1509 94.6286 62.5341 94.83 63.0348C95.0443 63.5171 95.2085 64.13 95.3224 64.8735C95.4942 65.9479 95.62 67.1766 95.6996 68.5596C95.795 69.9398 95.8542 71.3914 95.8771 72.9142C95.9001 74.4371 95.8877 75.9905 95.8401 77.5744C95.8055 79.1398 95.7441 80.645 95.656 82.0898C95.6343 82.3373 95.6002 82.5138 95.5537 82.6194C95.51 82.7407 95.3737 82.7971 95.1448 82.7884L91.7387 82.6781C91.6256 82.6816 91.5191 82.6759 91.419 82.6609C91.3374 82.659 91.2596 82.632 91.1855 82.58C91.1114 82.528 91.0569 82.4482 91.0218 82.3406C91.0052 82.2461 91.0041 82.1001 91.0182 81.9027C91.1395 80.647 91.234 79.331 91.3017 77.9547C91.3667 76.5626 91.3977 75.209 91.3949 73.8938C91.4051 72.56 91.379 71.2976 91.3167 70.1065C91.2544 68.9154 91.146 67.8786 90.9915 66.996C90.8867 66.3971 90.7324 66.0262 90.5287 65.8832C90.325 65.7401 90.0182 65.7045 89.6085 65.7762L83.8165 66.7901C83.5959 66.8287 83.4314 66.8169 83.323 66.7547C83.2147 66.6924 83.1398 66.5431 83.0984 66.3067L82.6142 63.5407ZM107.031 70.3771C107.072 70.6135 107.052 70.7793 106.972 70.8747C106.891 70.97 106.74 71.037 106.52 71.0757L104.345 71.4564L105.996 80.889C106.037 81.1254 106.017 81.2912 105.937 81.3866C105.856 81.4819 105.705 81.5489 105.485 81.5876L102.175 82.1669C101.954 82.2055 101.79 82.1937 101.681 82.1315C101.573 82.0692 101.498 81.9199 101.457 81.6835L97.8151 60.8798C97.7737 60.6434 97.7934 60.4775 97.8742 60.3822C97.9549 60.2868 98.1057 60.2198 98.3263 60.1812L101.636 59.6019C101.857 59.5632 102.021 59.5751 102.129 59.6373C102.238 59.6996 102.313 59.8489 102.354 60.0853L103.658 67.5321L105.833 67.1513C106.053 67.1127 106.218 67.1245 106.326 67.1868C106.434 67.249 106.509 67.3983 106.551 67.6348L107.031 70.3771ZM129.874 74.9061C130.048 75.899 129.96 76.6533 129.612 77.1691C129.264 77.6849 128.664 78.0173 127.813 78.1663L114.267 80.5375C113.416 80.6865 112.739 80.5776 112.236 80.2108C111.734 79.844 111.395 79.1641 111.221 78.1712L110.079 71.6464C110.038 71.41 110.058 71.2441 110.138 71.1488C110.219 71.0534 110.37 70.9864 110.59 70.9478L113.9 70.3684C114.121 70.3298 114.285 70.3416 114.394 70.4039C114.502 70.4661 114.577 70.6155 114.618 70.8519L114.775 71.7502L124.35 70.0742L124.193 69.1759C124.151 68.9395 124.171 68.7736 124.252 68.6782C124.332 68.5829 124.483 68.5159 124.704 68.4773L128.014 67.8979C128.234 67.8593 128.399 67.8711 128.507 67.9333C128.615 67.9956 128.69 68.1449 128.732 68.3813L129.874 74.9061ZM115.106 69.1828C113.719 69.4256 112.544 69.4444 111.583 69.2391C110.637 69.0311 109.854 68.689 109.235 68.2126C108.615 67.7363 108.142 67.1693 107.816 66.5118C107.49 65.8542 107.269 65.1944 107.153 64.5325C107.037 63.8705 107.022 63.1828 107.108 62.4692C107.192 61.7399 107.444 61.046 107.865 60.3876C108.301 59.7264 108.929 59.1374 109.748 58.6204C110.583 58.1006 111.686 57.7208 113.057 57.4807C114.428 57.2407 115.587 57.2247 116.533 57.4327C117.495 57.6379 118.285 57.9787 118.905 58.455C119.54 58.9286 120.021 59.4942 120.347 60.1518C120.671 60.7936 120.89 61.4455 121.006 62.1074C121.122 62.7694 121.138 63.465 121.055 64.1943C120.971 64.9236 120.719 65.6175 120.298 66.2759C119.878 66.9343 119.25 67.5234 118.415 68.0432C117.596 68.5601 116.493 68.94 115.106 69.1828ZM124.538 67.5316C124.318 67.5703 124.153 67.5584 124.045 67.4962C123.936 67.434 123.862 67.2846 123.82 67.0482L121.999 56.6464C121.958 56.41 121.978 56.2441 122.058 56.1487C122.139 56.0534 122.29 55.9864 122.511 55.9478L125.82 55.3684C126.041 55.3298 126.205 55.3416 126.314 55.4039C126.422 55.4661 126.497 55.6154 126.538 55.8518L128.359 66.2537C128.401 66.4901 128.381 66.656 128.3 66.7513C128.219 66.8467 128.069 66.9137 127.848 66.9523L124.538 67.5316ZM114.431 65.3294C114.715 65.2797 115.002 65.2051 115.293 65.1054C115.582 64.9899 115.838 64.8313 116.063 64.6296C116.288 64.4278 116.457 64.1871 116.57 63.9073C116.681 63.6118 116.7 63.2591 116.628 62.8494C116.56 62.4554 116.424 62.1461 116.222 61.9215C116.018 61.6812 115.776 61.5043 115.496 61.3908C115.216 61.2773 114.923 61.2232 114.615 61.2283C114.304 61.2177 114.007 61.2372 113.724 61.2869C113.44 61.3365 113.154 61.4191 112.865 61.5345C112.574 61.6342 112.316 61.785 112.092 61.9867C111.867 62.1885 111.7 62.4371 111.589 62.7326C111.475 63.0124 111.453 63.3492 111.522 63.7432C111.594 64.153 111.732 64.4781 111.936 64.7184C112.138 64.943 112.379 65.112 112.659 65.2255C112.938 65.3389 113.234 65.401 113.544 65.4116C113.852 65.4065 114.148 65.3791 114.431 65.3294ZM124.533 75.1587C124.801 75.1118 124.973 75.0249 125.048 74.8981C125.126 74.7869 125.139 74.5817 125.087 74.2822L124.938 73.4312L115.363 75.1072L115.512 75.9582C115.565 76.2577 115.646 76.4464 115.757 76.5244C115.871 76.6182 116.062 76.6416 116.33 76.5947L124.533 75.1587ZM80.9956 118.613C79.6244 118.853 78.4268 118.924 77.4028 118.827C76.3945 118.728 75.5417 118.495 74.8443 118.13C74.1626 117.762 73.6247 117.288 73.2307 116.707C72.8552 116.139 72.6053 115.501 72.4812 114.792C72.3571 114.082 72.383 113.396 72.5591 112.731C72.7324 112.051 73.0864 111.429 73.6211 110.864C74.153 110.284 74.8762 109.776 75.7906 109.339C76.7051 108.903 77.8401 108.566 79.1954 108.329C80.5508 108.092 81.7327 108.023 82.741 108.123C83.7492 108.222 84.6021 108.455 85.2995 108.82C85.9942 109.169 86.5385 109.634 86.9326 110.215C87.3238 110.78 87.5816 111.417 87.7057 112.127C87.8299 112.836 87.8039 113.523 87.6278 114.187C87.4702 114.864 87.1255 115.493 86.5936 116.073C86.0775 116.651 85.3543 117.159 84.424 117.598C83.5096 118.035 82.3667 118.373 80.9956 118.613ZM72.7474 96.1302C72.9681 96.0915 73.1326 96.1034 73.2409 96.1656C73.3493 96.2279 73.4242 96.3772 73.4656 96.6136L74.049 99.9469C74.1291 100.404 74.2628 100.843 74.4504 101.265C74.6352 101.672 74.9105 102.038 75.2761 102.364C75.639 102.674 76.0988 102.934 76.6556 103.145C77.2096 103.341 77.8944 103.448 78.71 103.468C78.7758 103.473 78.8495 103.476 78.931 103.478C79.0284 103.477 79.1219 103.501 79.2118 103.551C79.2988 103.584 79.3757 103.652 79.4423 103.754C79.5219 103.838 79.5782 103.974 79.6113 104.163L80.0707 106.787C80.1203 107.071 80.0719 107.258 79.9253 107.349C79.7917 107.421 79.6684 107.458 79.5553 107.462C78.9954 107.511 78.4143 107.532 77.8118 107.524C77.2224 107.497 76.6339 107.429 76.0465 107.321C75.4562 107.197 74.88 107.013 74.3177 106.771C73.7554 106.528 73.2373 106.213 72.7633 105.825C72.4335 106.353 72.0454 106.827 71.599 107.247C71.1684 107.663 70.6966 108.03 70.1836 108.347C69.6679 108.649 69.1295 108.913 68.5684 109.142C68.0203 109.351 67.4746 109.528 66.9313 109.672C66.8237 109.707 66.687 109.715 66.5211 109.695C66.3682 109.657 66.267 109.496 66.2173 109.212L65.758 106.588C65.7249 106.399 65.7237 106.253 65.7544 106.15C65.7981 106.029 65.8553 105.937 65.9258 105.876C65.9936 105.8 66.0655 105.746 66.1415 105.717C66.2333 105.684 66.3093 105.655 66.3696 105.628C67.1301 105.333 67.7376 104.999 68.1923 104.627C68.6442 104.239 68.9881 103.838 69.2241 103.423C69.4574 102.992 69.5919 102.554 69.6277 102.11C69.6608 101.649 69.6374 101.19 69.5573 100.733L68.9739 97.3999C68.9325 97.1635 68.9522 96.9976 69.0329 96.9022C69.1137 96.8069 69.2644 96.7399 69.485 96.7013L72.7474 96.1302ZM83.3319 107.045C83.1113 107.083 82.9468 107.071 82.8384 107.009C82.7301 106.947 82.6552 106.798 82.6138 106.561L81.7448 101.597L78.3405 102.193C78.1199 102.231 77.9554 102.219 77.847 102.157C77.7387 102.095 77.6638 101.946 77.6224 101.709L77.1424 98.9668C77.101 98.7304 77.1207 98.5646 77.2015 98.4692C77.2822 98.3739 77.4329 98.3069 77.6536 98.2682L81.0578 97.6723L80.6523 95.3556C80.6109 95.1192 80.6306 94.9533 80.7114 94.8579C80.7921 94.7626 80.9428 94.6956 81.1635 94.6569L84.4731 94.0776C84.6938 94.039 84.8583 94.0508 84.9666 94.113C85.075 94.1753 85.1499 94.3246 85.1913 94.561L87.1528 105.767C87.1942 106.003 87.1745 106.169 87.0937 106.264C87.0129 106.36 86.8622 106.427 86.6416 106.465L83.3319 107.045ZM80.3459 114.901C80.7557 114.829 81.1455 114.737 81.5155 114.623C81.8855 114.51 82.2026 114.373 82.467 114.213C82.7472 114.05 82.9574 113.859 83.0976 113.64C83.2379 113.42 83.2832 113.169 83.2335 112.885C83.1838 112.601 83.0572 112.388 82.8535 112.245C82.647 112.086 82.3844 111.978 82.0656 111.92C81.7599 111.844 81.4137 111.815 81.0272 111.834C80.6407 111.853 80.2425 111.898 79.8327 111.97C79.423 112.041 79.0331 112.134 78.6631 112.248C78.2932 112.361 77.9695 112.507 77.6921 112.686C77.4277 112.846 77.2254 113.035 77.0852 113.255C76.9421 113.458 76.8955 113.702 76.9451 113.986C76.9948 114.27 77.1228 114.491 77.3293 114.65C77.5358 114.808 77.7905 114.918 78.0935 114.979C78.4123 115.037 78.7649 115.056 79.1514 115.037C79.538 115.018 79.9361 114.973 80.3459 114.901ZM102.816 114.793C99.7425 115.331 97.3726 115.34 95.7059 114.819C94.0392 114.299 93.0706 113.267 92.8003 111.722C92.5299 110.178 93.0994 108.884 94.5087 107.841C95.931 106.78 98.1552 105.985 101.181 105.455C104.207 104.925 106.561 104.919 108.244 105.437C109.939 105.936 110.922 106.958 111.193 108.502C111.463 110.047 110.903 111.347 109.512 112.403C108.121 113.458 105.889 114.255 102.816 114.793ZM89.8536 103.101C89.8122 102.865 89.8319 102.699 89.9127 102.603C89.9935 102.508 90.1442 102.441 90.3648 102.402L96.6532 101.302L96.1814 98.6066C96.1401 98.3702 96.1597 98.2043 96.2405 98.1089C96.3213 98.0136 96.472 97.9466 96.6926 97.908L100.002 97.3286C100.223 97.29 100.387 97.3018 100.496 97.3641C100.604 97.4263 100.679 97.5756 100.72 97.812L101.192 100.507L110.317 98.9097C110.538 98.8711 110.703 98.8829 110.811 98.9451C110.919 99.0074 110.994 99.1567 111.036 99.3931L111.52 102.159C111.561 102.395 111.541 102.561 111.461 102.657C111.38 102.752 111.229 102.819 111.009 102.858L91.0559 106.35C90.8353 106.389 90.6708 106.377 90.5624 106.315C90.454 106.253 90.3792 106.103 90.3378 105.867L89.8536 103.101ZM104.258 98.1186C104.26 97.6635 104.254 97.2585 104.24 96.9035C104.224 96.5327 104.196 96.1397 104.156 95.7244C104.121 95.3406 104.005 95.093 103.807 94.9815C103.624 94.8673 103.391 94.835 103.107 94.8846L90.9562 97.0117C90.7355 97.0503 90.571 97.0385 90.4627 96.9762C90.3543 96.914 90.2794 96.7647 90.2381 96.5283L89.7539 93.7623C89.7125 93.5259 89.7322 93.36 89.813 93.2647C89.8937 93.1693 90.0444 93.1023 90.2651 93.0637L105.277 90.4359C106.128 90.2869 106.805 90.3958 107.308 90.7626C107.81 91.1294 108.149 91.8093 108.322 92.8022C108.466 93.6217 108.57 94.4482 108.635 95.2815C108.712 96.0963 108.768 96.9718 108.802 97.908C108.812 98.1499 108.778 98.3264 108.7 98.4375C108.619 98.5329 108.442 98.5883 108.168 98.6036L104.986 98.7953C104.76 98.8024 104.582 98.7604 104.452 98.6694C104.323 98.5784 104.258 98.3948 104.258 98.1186ZM102.187 111.2C103.132 111.034 103.901 110.875 104.491 110.723C105.085 110.587 105.546 110.441 105.876 110.286C106.209 110.146 106.426 109.995 106.528 109.831C106.645 109.664 106.685 109.478 106.649 109.273C106.616 109.084 106.516 108.931 106.35 108.814C106.199 108.694 105.943 108.625 105.583 108.607C105.219 108.573 104.734 108.585 104.127 108.643C103.52 108.7 102.743 108.812 101.798 108.978C100.852 109.143 100.084 109.302 99.4934 109.454C98.9028 109.606 98.4424 109.76 98.1122 109.915C97.7793 110.055 97.5543 110.208 97.4373 110.374C97.3361 110.538 97.302 110.715 97.3351 110.904C97.371 111.109 97.4644 111.271 97.6153 111.391C97.7819 111.508 98.0455 111.575 98.4061 111.594C98.7693 111.627 99.2532 111.608 99.8576 111.534C100.465 111.477 101.241 111.365 102.187 111.2Z" fill="white"/>
</g>
<defs>
<filter id="filter0_d_4_3473" x="0.72998" y="0.907715" width="170.27" height="170.27" filterUnits="userSpaceOnUse" color-interpolation-filters="sRGB">
<feFlood flood-opacity="0" result="BackgroundImageFix"/>
<feColorMatrix in="SourceAlpha" type="matrix" values="0 0 0 0 0 0 0 0 0 0 0 0 0 0 0 0 0 0 127 0" result="hardAlpha"/>
<feOffset dy="2"/>
<feGaussianBlur stdDeviation="4"/>
<feComposite in2="hardAlpha" operator="out"/>
<feColorMatrix type="matrix" values="0 0 0 0 0.431373 0 0 0 0 0.415686 0 0 0 0 0.588235 0 0 0 0.4 0"/>
<feBlend mode="normal" in2="BackgroundImageFix" result="effect1_dropShadow_4_3473"/>
<feBlend mode="normal" in="SourceGraphic" in2="effect1_dropShadow_4_3473" result="shape"/>
</filter>
<linearGradient id="paint0_linear_4_3473" x1="85.865" y1="6.90771" x2="85.865" y2="161.178" gradientUnits="userSpaceOnUse">
<stop stop-color="#FFE976"/>
<stop offset="1" stop-color="#FFDE68"/>
</linearGradient>
<linearGradient id="paint1_linear_4_3473" x1="85.865" y1="21.5151" x2="85.865" y2="146.57" gradientUnits="userSpaceOnUse">
<stop stop-color="#FFE976"/>
<stop offset="1" stop-color="#FFDE68"/>
</linearGradient>
</defs>
</svg>
